# Blender v2.92.0 OBJ File: ''
# www.blender.org
mtllib cubeafss.mtl
o Cube
v -1.000000 0.000000 1.000000
v -1.000000 2.000000 1.000000
v -1.000000 0.000000 -1.000000
v -1.000000 2.000000 -1.000000
v 1.000000 0.000000 1.000000
v 1.000000 2.000000 1.000000
v 1.000000 0.000000 -1.000000
v 1.000000 2.000000 -1.000000
vt 0.994794 0.010314
vt 0.994794 0.989433
vt 0.015675 0.989433
vt 0.015675 0.010314
vt 0.012752 0.989433
vt 0.012752 0.010314
vt 0.991871 0.010315
vt 0.991871 0.989433
vt 0.988583 0.992721
vt 0.009465 0.992720
vt 0.009465 0.013602
vt 0.988583 0.013602
vt 0.985296 0.989797
vt 0.006177 0.989797
vt 0.006177 0.010679
vt 0.985296 0.010679
vt 0.006177 0.010314
vt 0.985296 0.010314
vt 0.985296 0.989433
vt 0.006177 0.989433
vt 0.991506 0.992721
vt 0.012388 0.992721
vt 0.012388 0.013602
vt 0.991506 0.013602
vn -1.0000 0.0000 0.0000
vn 0.0000 0.0000 -1.0000
vn 1.0000 0.0000 0.0000
vn 0.0000 0.0000 1.0000
vn 0.0000 -1.0000 0.0000
vn 0.0000 1.0000 0.0000
usemtl None
s off
f 1/1/1 2/2/1 4/3/1 3/4/1
f 3/5/2 4/6/2 8/7/2 7/8/2
f 7/9/3 8/10/3 6/11/3 5/12/3
f 5/13/4 6/14/4 2/15/4 1/16/4
f 3/17/5 7/18/5 5/19/5 1/20/5
f 8/21/6 4/22/6 2/23/6 6/24/6
